# xmcd
#
# Track frame offsets: 
#        150
#        15687
#        32346
#        47635
#        66168
#        83082
#        99566
#        115754
#        131667
#        148657
#        167894
#
# Disc length: 2461 seconds
#
# Revision: 0
# Processed by: cddbd v1.5.2PL0 Copyright (c) Steve Scherf et al.
# Submitted via: ExactAudioCopy v0.99pb5
#
DISCID=8d099b0b
DTITLE=Drake Jensen - On My Way To Finding You
DYEAR=1900
DGENRE=Country
TTITLE0=Where You Goin' With That
TTITLE1=I'm Here To Love You
TTITLE2=The Son I'll Never Have
TTITLE3=I Hope You Smile
TTITLE4=It's Not About Me Anymore
TTITLE5=Still On The Radio
TTITLE6=I knew Her When
TTITLE7=All You Need
TTITLE8=On My Way To Finding You
TTITLE9=Wash Me Away
TTITLE10=I Found Me
EXTD=
EXTT0=
EXTT1=
EXTT2=
EXTT3=
EXTT4=
EXTT5=
EXTT6=
EXTT7=
EXTT8=
EXTT9=
EXTT10=
PLAYORDER=
